<?xml version="1.0" standalone="no"?>
<!DOCTYPE svg PUBLIC "-//W3C//DTD SVG 20010904//EN"
 "http://www.w3.org/TR/2001/REC-SVG-20010904/DTD/svg10.dtd">
<svg version="1.0" xmlns="http://www.w3.org/2000/svg"
 width="1024.000000pt" height="1024.000000pt" viewBox="0 0 1024.000000 1024.000000"
 preserveAspectRatio="xMidYMid meet">

<g transform="translate(0.000000,1024.000000) scale(0.100000,-0.100000)"
fill="#000000" stroke="none">
<path d="M4945 9194 c-55 -24 -116 -49 -135 -55 -19 -7 -39 -15 -45 -19 -5 -4
-41 -19 -80 -33 -71 -26 -125 -47 -180 -72 -16 -7 -61 -24 -100 -38 -38 -14
-133 -48 -210 -77 -181 -68 -370 -135 -465 -165 -41 -13 -95 -30 -120 -39 -96
-34 -227 -75 -280 -87 -30 -7 -59 -16 -65 -20 -5 -4 -30 -10 -55 -14 -24 -4
-51 -11 -60 -16 -16 -8 -203 -53 -287 -69 -26 -5 -68 -14 -93 -20 -51 -12
-213 -36 -340 -51 -47 -5 -165 -13 -263 -16 -172 -5 -179 -6 -187 -27 -4 -12
-7 -681 -5 -1487 2 -1421 5 -1545 34 -1794 6 -44 14 -118 20 -165 5 -47 15
-107 20 -135 6 -27 13 -63 15 -80 13 -80 28 -148 51 -235 14 -52 32 -121 40
-152 8 -32 19 -66 24 -75 5 -10 25 -70 45 -133 61 -191 77 -229 179 -440 78
-161 152 -299 192 -360 12 -19 66 -103 119 -186 139 -219 322 -463 509 -679
202 -233 576 -597 742 -721 28 -21 77 -61 110 -90 109 -94 405 -299 707 -489
112 -71 230 -135 248 -135 44 0 205 91 475 269 376 247 637 459 1037 843 162
155 424 460 611 710 356 477 598 935 760 1443 104 324 147 570 189 1085 6 73
12 730 14 1578 l5 1452 -58 0 c-78 0 -427 28 -483 39 -25 5 -54 9 -65 9 -31 0
-141 19 -240 42 -49 11 -115 26 -145 32 -30 6 -64 14 -75 19 -11 4 -45 13 -75
19 -30 6 -75 18 -100 26 -25 7 -88 25 -140 40 -87 24 -268 81 -445 140 -38 13
-146 51 -240 84 -93 34 -183 66 -200 71 -16 5 -39 13 -50 19 -11 5 -49 20 -85
34 -154 57 -247 92 -435 167 -110 44 -208 84 -217 89 -10 6 -19 10 -20 9 -2 0
-48 -20 -103 -45z m335 -344 c107 -38 319 -119 470 -180 463 -187 519 -207
710 -260 102 -28 255 -71 340 -95 313 -89 510 -132 728 -160 118 -15 248 -32
290 -38 l77 -12 3 -320 c1 -176 -2 -813 -7 -1415 -10 -1177 -13 -1232 -66
-1505 -50 -253 -110 -451 -218 -715 -217 -534 -467 -956 -821 -1385 -146 -178
-476 -502 -631 -621 -355 -272 -700 -523 -973 -707 -122 -82 -146 -95 -163
-86 -118 63 -757 480 -909 593 -234 174 -895 886 -1138 1226 -102 143 -314
494 -392 648 -141 279 -198 460 -269 842 -71 379 -97 669 -111 1215 -25 977
-22 2116 5 2188 4 10 52 23 148 42 628 120 762 149 882 191 55 20 217 69 360
110 433 125 574 174 980 339 402 164 458 185 485 179 14 -3 113 -36 220 -74z"/>
<path d="M2890 7949 c0 -18 9 -23 163 -73 147 -49 241 -98 298 -157 53 -55 74
-105 89 -219 13 -106 13 -3414 -1 -3500 -16 -101 -40 -168 -77 -211 -41 -48
-162 -108 -277 -138 -44 -12 -96 -26 -115 -31 -19 -5 -47 -12 -62 -15 -19 -4
-28 -12 -28 -25 0 -20 9 -20 825 -20 l825 0 4 -22 c2 -13 12 -120 21 -238 9
-118 19 -218 22 -222 2 -5 18 -8 35 -8 64 0 321 -58 578 -129 775 -216 1440
-112 1821 286 159 166 252 346 298 574 34 173 30 235 -31 432 -81 260 -288
478 -648 682 -47 27 -227 118 -400 202 -579 283 -700 348 -683 363 4 4 33 15
63 25 30 10 109 43 175 75 209 100 393 238 507 379 141 175 203 300 243 493
13 66 27 123 29 125 8 9 141 -104 206 -175 105 -113 169 -237 205 -397 19 -82
38 -117 54 -100 9 10 34 946 25 954 -2 2 -30 -21 -62 -51 -94 -90 -159 -98
-309 -38 -116 46 -123 52 -123 105 0 55 -42 239 -72 315 -112 287 -286 483
-533 605 -60 29 -137 62 -170 73 -104 35 -297 71 -436 82 -81 6 -594 11 -1297
13 -1068 2 -1162 1 -1162 -14z m1854 -129 c304 -18 539 -62 690 -129 241 -109
400 -319 467 -621 30 -138 44 -124 -143 -137 -291 -21 -499 -83 -702 -210 -67
-43 -206 -185 -262 -268 -80 -122 -137 -264 -165 -415 -20 -106 -14 -331 11
-425 12 -44 24 -90 27 -101 5 -21 1 -22 -129 -29 -73 -3 -208 -5 -301 -3
l-167 3 0 1165 c0 641 0 1168 0 1173 0 10 475 8 674 -3z m1197 -1052 c16 -29
5 -320 -15 -408 -27 -120 -68 -234 -119 -335 -43 -85 -65 -114 -146 -195 -85
-84 -109 -102 -204 -149 -80 -39 -114 -51 -133 -47 -14 4 -62 44 -107 89 -160
162 -206 313 -162 535 25 123 75 214 169 308 149 148 346 221 603 223 95 1
103 0 114 -21z m-1162 -1458 c98 -134 269 -275 481 -395 103 -59 353 -184 510
-255 422 -192 712 -357 846 -482 128 -120 210 -274 236 -443 14 -94 -8 -243
-53 -352 -97 -231 -326 -387 -622 -424 -141 -18 -379 -6 -503 25 -344 85 -651
292 -905 611 -71 89 -189 264 -224 333 -26 50 -42 69 -50 60 -5 -5 22 -299 31
-340 3 -14 1 -28 -3 -31 -11 -7 -147 36 -240 75 -134 56 -181 120 -203 277 -5
37 -10 363 -10 725 l-1 658 193 0 c106 -1 236 3 288 7 193 16 180 19 229 -49z"/>
</g>
</svg>
